<svg viewBox="0 0 172 47" fill="none" xmlns="http://www.w3.org/2000/svg">
  <path d="M63.76 7.965h-8.412V32.03h8.412c7.69 0 12.689-4.724 12.689-11.998 0-7.31-5-12.067-12.689-12.067Zm-3.585 19.962V12.033h3.413c5.068 0 7.93 3 7.93 7.999s-2.862 7.895-7.93 7.895h-3.413Zm36.609-5.344c0 3.126-.828 5.54-2.483 7.24-1.632 1.7-3.861 2.551-6.688 2.551-1.747 0-3.31-.379-4.69-1.137-1.356-.759-2.424-1.862-3.206-3.31-.781-1.471-1.172-3.252-1.172-5.344 0-3.126.816-5.528 2.448-7.206 1.632-1.677 3.873-2.516 6.723-2.516 1.77 0 3.333.379 4.69 1.137 1.355.759 2.424 1.862 3.206 3.31.781 1.425 1.172 3.183 1.172 5.275Zm-12.999 0c0 1.862.3 3.275.897 4.24.62.943 1.62 1.414 3 1.414 1.356 0 2.333-.471 2.93-1.413.62-.966.931-2.38.931-4.241 0-1.862-.31-3.252-.93-4.172-.598-.942-1.587-1.413-2.966-1.413-1.356 0-2.344.471-2.965 1.413-.598.92-.897 2.31-.897 4.172Zm3.862 16.687c-.781 0-1.448-.184-2-.552-.528-.368-.793-1.023-.793-1.965 0-.965.265-1.632.793-2 .552-.345 1.219-.517 2-.517.759 0 1.414.172 1.965.517.552.368.828 1.035.828 2 0 .942-.276 1.597-.828 1.965-.551.368-1.206.552-1.965.552Zm3.069-33.65c.322.506.735 1.08 1.24 1.724a61.41 61.41 0 0 0 3.07 3.345v.448h-3.414a53.824 53.824 0 0 1-1.965-1.276 13.84 13.84 0 0 1-1.965-1.69 13.127 13.127 0 0 1-1.931 1.656c-.69.482-1.333.92-1.931 1.31h-3.413v-.448c.436-.437.919-.943 1.448-1.517a39.192 39.192 0 0 0 1.586-1.828c.528-.643.954-1.218 1.275-1.723h6Zm11.762 5.034c1.689 0 2.93-1.241 2.93-2.827 0-1.586-1.241-2.827-2.93-2.827-1.759 0-3 1.241-3 2.827 0 1.586 1.241 2.827 3 2.827Zm-2.448 2.276V35.2c0 1.276-.517 1.828-2 1.828h-1.38v4.102h2.138c3.69 0 6.069-1.551 6.069-5.964V12.93h-4.827Zm8.906 19.1h4.827v-19.1h-4.827v19.1Zm2.448-21.376c1.69 0 2.965-1.241 2.965-2.827 0-1.586-1.275-2.827-2.965-2.827-1.724 0-2.965 1.241-2.965 2.827 0 1.586 1.241 2.827 2.965 2.827Zm33.18 21.376h4.827V20.825c0-5.275-3.241-8.171-7.827-8.171-2.793 0-5.31 1.482-6.551 3.654-1.31-2.379-3.758-3.654-6.723-3.654-2.379 0-4.413 1-5.62 2.585v-2.31h-4.827v19.1h4.827V21.48c0-3.033 1.689-4.62 4.31-4.62 2.551 0 4.241 1.587 4.241 4.62v10.55h4.827V21.48c0-3.033 1.689-4.62 4.275-4.62 2.551 0 4.241 1.587 4.241 4.62v10.55Zm7.476-9.62c0 5.965 3.862 9.93 8.689 9.93 3.034 0 5.206-1.448 6.344-3.103v2.793h4.862v-19.1h-4.862v2.723c-1.138-1.586-3.241-3.034-6.309-3.034-4.862 0-8.724 3.827-8.724 9.792Zm15.033.07c0 3.62-2.413 5.62-5.068 5.62-2.586 0-5.034-2.07-5.034-5.69 0-3.62 2.448-5.55 5.034-5.55 2.655 0 5.068 2 5.068 5.62Z" fill="#000"/>
  <path d="M23.453 39.734c9.843 0 17.823-7.997 17.823-17.86 0-9.864-7.98-17.86-17.824-17.86-9.843 0-17.823 7.996-17.823 17.86 0 9.864 7.98 17.86 17.824 17.86Z" fill="url(#dark_svg__a)"/>
  <path d="M44.557 7.438c3.186-7.021-3.851-6.1-10.786-.051.156.156.938.783 1.407 1.096 8.09-5.014 5.395.748 3.904 3.453-1.49 2.705-14.995 19.39-25.641 25.742-8.517 5.082-5.958-.926-3.748-4.441L8.6 31.827l-2.123 3.055C3.829 39.097.483 46.7 8.27 43.392c14.235-6.504 30.812-23.888 36.287-35.954Z" fill="url(#dark_svg__b)"/>
  <g filter="url(#dark_svg__c)">
    <path d="m21.216 31.803 1.932-1.723c.657.606 1.294 1.183 1.9 1.723l-1.9 1.686c-.622-.53-1.268-1.092-1.932-1.686Z" fill="url(#dark_svg__d)"/>
  </g>
  <path d="m12.834 7.625-1.147.847c-3.2-1.996-8.507-4.04-4.136 3.748 3.203 5.706 10.121 12.808 15.598 17.86.657.605 1.293 1.182 1.9 1.723a119.64 119.64 0 0 0 3.27 2.82c6.4 4.776 14.217 8.867 8.736-1.097l.781-1.097c4.98 4.807 11.885 19.123-7.072 6.88-.938-.607-3.851-2.618-7.615-5.82a110.32 110.32 0 0 1-1.933-1.686C15.435 26.633 8.273 19.064 3.084 9.74-1.82.93 3.688.097 12.834 7.625Z" fill="url(#dark_svg__e)"/>
  <defs>
    <linearGradient id="dark_svg__a" x1="41.276" y1="18.427" x2="5.618" y2="28.416" gradientUnits="userSpaceOnUse">
      <stop stop-color="#8D57DE"/>
      <stop offset="1" stop-color="#D6D6FC"/>
    </linearGradient>
    <linearGradient id="dark_svg__b" x1="-13.463" y1="-5.973" x2="89.813" y2="-10.438" gradientUnits="userSpaceOnUse">
      <stop stop-color="#F81"/>
      <stop offset="1" stop-color="#FF1267"/>
    </linearGradient>
    <linearGradient id="dark_svg__d" x1="18.351" y1="29.156" x2="35.809" y2="27.982" gradientUnits="userSpaceOnUse">
      <stop stop-color="#F81"/>
      <stop offset="1" stop-color="#FF1267"/>
    </linearGradient>
    <linearGradient id="dark_svg__e" x1="-15.7" y1="-5.96" x2="87.868" y2="-10.458" gradientUnits="userSpaceOnUse">
      <stop stop-color="#F81"/>
      <stop offset="1" stop-color="#FF1267"/>
    </linearGradient>
    <filter id="dark_svg__c" x="17.216" y="30.08" width="7.833" height="7.408" filterUnits="userSpaceOnUse" color-interpolation-filters="sRGB">
      <feFlood flood-opacity="0" result="BackgroundImageFix"/>
      <feBlend in="SourceGraphic" in2="BackgroundImageFix" result="shape"/>
      <feColorMatrix in="SourceAlpha" values="0 0 0 0 0 0 0 0 0 0 0 0 0 0 0 0 0 0 127 0" result="hardAlpha"/>
      <feOffset dx="-4" dy="4"/>
      <feGaussianBlur stdDeviation="2"/>
      <feComposite in2="hardAlpha" operator="arithmetic" k2="-1" k3="1"/>
      <feColorMatrix values="0 0 0 0 0.0999942 0 0 0 0 0.0802951 0 0 0 0 0.154167 0 0 0 0.16 0"/>
      <feBlend in2="shape" result="effect1_innerShadow_3361_5147"/>
    </filter>
  </defs>
</svg>
