<svg xmlns="http://www.w3.org/2000/svg" viewBox="0 0 50 16" fill="none">
  <path d="M1 7c0-2.828 0-4.243.879-5.121C2.757 1 4.172 1 7 1h36c2.828 0 4.243 0 5.121.879C49 2.757 49 4.172 49 7v2c0 2.828 0 4.243-.879 5.121C47.243 15 45.828 15 43 15H7c-2.828 0-4.243 0-5.121-.879C1 13.243 1 11.828 1 9V7Z" stroke="#F56565" stroke-width=".5"/>
  <path d="M10.425 11.064c-1.256 0-2.056-.752-2.128-1.896h.672c.072.776.584 1.28 1.456 1.28.776 0 1.344-.296 1.344-.976 0-1.44-3.28-.648-3.28-2.648 0-.888.776-1.488 1.896-1.488 1.12 0 1.896.648 1.976 1.656h-.672c-.064-.632-.552-1.04-1.304-1.04s-1.208.336-1.208.872c0 1.432 3.296.544 3.296 2.648 0 1.016-.872 1.592-2.048 1.592ZM13.742 5.68h.64v1.288h1.24v.568h-1.24V9.72c0 .448.256.712.648.712h.592V11h-.616c-.776 0-1.264-.48-1.264-1.264v-2.2h-.84v-.568h.84V5.68ZM17.637 11.064c-.848 0-1.4-.48-1.4-1.216 0-.768.632-1.256 1.608-1.256h.912c.176 0 .256-.088.256-.216 0-.552-.392-.928-1.08-.928-.592 0-1.056.368-1.088.808h-.608c.072-.776.808-1.352 1.712-1.352 1.048 0 1.704.6 1.704 1.496V11h-.64v-.696c-.216.464-.752.76-1.376.76Zm-.744-1.224c0 .416.328.68.84.68.808 0 1.28-.504 1.28-1.336V9.08h-1.128c-.6 0-.992.288-.992.76ZM21.076 12.632v-.552h1.864c.52 0 .888-.392.888-.928v-.712c-.184.376-.728.624-1.336.624-1.256 0-1.944-.904-1.944-2.08 0-1.176.688-2.08 1.944-2.08.544 0 1.088.272 1.336.656v-.592h.64v4.208c0 .856-.616 1.456-1.488 1.456h-1.904Zm.136-3.648c0 .912.528 1.504 1.336 1.504s1.336-.592 1.336-1.504-.528-1.504-1.336-1.504-1.336.592-1.336 1.504ZM27.399 11.064c-1.192 0-1.992-.952-1.992-2.104 0-1.184.736-2.056 1.92-2.056 1.176 0 1.88.816 1.88 1.888 0 .088-.008.224-.016.28h-3.152c.048.832.6 1.424 1.36 1.424.656 0 1.072-.288 1.2-.792h.648c-.136.824-.848 1.36-1.848 1.36ZM26.071 8.56h2.48c-.048-.68-.504-1.112-1.224-1.112-.68 0-1.136.4-1.256 1.112ZM30.171 11V6.968h.64v.776c.216-.56.712-.84 1.336-.84.912 0 1.504.648 1.504 1.632V11h-.64V8.64c0-.688-.4-1.152-1.008-1.152-.696 0-1.192.552-1.192 1.336V11h-.64ZM36.524 11.064c-1.192 0-1.992-.952-1.992-2.104 0-1.184.736-2.056 1.92-2.056 1.176 0 1.88.816 1.88 1.888 0 .088-.008.224-.016.28h-3.152c.048.832.6 1.424 1.36 1.424.656 0 1.072-.288 1.2-.792h.648c-.136.824-.848 1.36-1.848 1.36ZM35.196 8.56h2.48c-.048-.68-.504-1.112-1.224-1.112-.68 0-1.136.4-1.256 1.112ZM39.57 5.68h.64v1.288h1.24v.568h-1.24V9.72c0 .448.256.712.648.712h.592V11h-.616c-.776 0-1.264-.48-1.264-1.264v-2.2h-.84v-.568h.84V5.68Z" fill="#F56565"/>
</svg>
